<svg xmlns="http://www.w3.org/2000/svg" viewBox="0 0 320 256"><rect width="320" height="256" fill="#0c0c11"/><linearGradient id="hb" x1="0" y1="0" x2="1" y2="0.3"><stop offset="0" stop-color="#c24a00"/><stop offset="0.55" stop-color="#a33d00"/><stop offset="1" stop-color="#6b2800"/></linearGradient><rect width="320" height="84" fill="url(#hb)"/><rect y="81" width="320" height="3" fill="#ff6d00"/><path d="M50.733999999999995 37.596000000000004 49.766 43.228H55.134V48.244H48.885999999999996L47.566 55.9H41.757999999999996L43.078 48.244H38.194L36.873999999999995 55.9H31.066L32.385999999999996 48.244H27.985999999999997V43.228H33.266L34.233999999999995 37.596000000000004H28.866V32.58H35.114L36.39 25.1H42.198L40.922 32.58H45.806L47.081999999999994 25.1H52.89L51.614 32.58H56.013999999999996V37.596000000000004ZM44.926 37.596000000000004H40.042L39.074 43.228H43.958Z" fill="#fff"/><path d="M82.38 28.599999999999998H87.004V52.4H82.38Z M110.294 44.512V52.4H105.67V45.565999999999995L103.63 43.288H96.218V52.4H91.594V28.599999999999998H106.52000000000001L110.158 32.272V39.48L107.846 41.82599999999999ZM96.218 39.48H104.412L105.602 38.29V33.666L104.412 32.476H96.218Z M114.20400000000001 48.489999999999995V32.51L118.114 28.599999999999998H129.74200000000002L133.584 32.44199999999999V36.08H128.96V34.141999999999996L127.36200000000001 32.544H120.562L118.828 34.278V46.721999999999994L120.562 48.455999999999996H127.36200000000001L128.96 46.858V44.92H133.584V48.558L129.74200000000002 52.4H118.114Z" fill="#ffffff"/><g transform="translate(266 23.5) scale(0.38636363636363635) translate(-4 -4)"><path d="M81.98 46.78A34 34 0 1 1 49.22 14.02" fill="none" stroke="#ffffff" stroke-width="11" stroke-linecap="round"/><circle cx="48" cy="48" r="15" fill="#ffe2c6"/><polygon points="75.45,20.55 70.82,37.82 58.18,25.18" fill="#ffe2c6" stroke="#ffe2c6" stroke-width="7.0" stroke-linejoin="round"/></g><path d="M25.1328125 118.203125Q23.875 118.203125 22.94921875 117.796875Q22.0234375 117.390625 21.5 116.66015625Q20.9765625 115.9296875 20.90625 114.953125H22.4296875Q22.4921875 115.609375 22.875 116.03515625Q23.2578125 116.4609375 23.85546875 116.66796875Q24.453125 116.875 25.1328125 116.875Q25.921875 116.875 26.55078125 116.6171875Q27.1796875 116.359375 27.546875 115.890625Q27.9140625 115.421875 27.9140625 114.8046875Q27.9140625 114.2421875 27.59765625 113.890625Q27.28125 113.5390625 26.7578125 113.3125Q26.234375 113.0859375 25.609375 112.9140625L24.203125 112.515625Q22.796875 112.1171875 22.015625 111.375Q21.234375 110.6328125 21.234375 109.4765625Q21.234375 108.4921875 21.765625 107.75390625Q22.296875 107.015625 23.203125 106.609375Q24.109375 106.203125 25.234375 106.203125Q26.3828125 106.203125 27.265625 106.609375Q28.1484375 107.015625 28.66015625 107.71484375Q29.171875 108.4140625 29.203125 109.296875H27.75Q27.6484375 108.4453125 26.9375 107.98046875Q26.2265625 107.515625 25.1875 107.515625Q24.4375 107.515625 23.87109375 107.76171875Q23.3046875 108.0078125 22.9921875 108.43359375Q22.6796875 108.859375 22.6796875 109.40625Q22.6796875 110.015625 23.05859375 110.38671875Q23.4375 110.7578125 23.95703125 110.96484375Q24.4765625 111.171875 24.8984375 111.2890625L26.0625 111.609375Q26.53125 111.734375 27.09765625 111.953125Q27.6640625 112.171875 28.1796875 112.53515625Q28.6953125 112.8984375 29.02734375 113.45703125Q29.359375 114.015625 29.359375 114.828125Q29.359375 115.78125 28.86328125 116.546875Q28.3671875 117.3125 27.421875 117.7578125Q26.4765625 118.203125 25.1328125 118.203125Z M35.0546875 118.1875Q33.8671875 118.1875 32.97265625 117.625Q32.078125 117.0625 31.578125 116.046875Q31.078125 115.03125 31.078125 113.6875Q31.078125 112.3203125 31.578125 111.30078125Q32.078125 110.28125 32.97265625 109.71875Q33.8671875 109.15625 35.0546875 109.15625Q35.6875 109.15625 36.25 109.3203125Q36.8125 109.484375 37.27734375 109.79296875Q37.7421875 110.1015625 38.078125 110.55078125Q38.4140625 111.0 38.59375 111.5703125L37.2421875 111.953125Q37.1484375 111.6171875 36.953125 111.3359375Q36.7578125 111.0546875 36.48046875 110.84765625Q36.203125 110.640625 35.84375 110.52734375Q35.484375 110.4140625 35.0546875 110.4140625Q34.1796875 110.4140625 33.6171875 110.87109375Q33.0546875 111.328125 32.78125 112.0703125Q32.5078125 112.8125 32.5078125 113.6875Q32.5078125 114.546875 32.78125 115.28515625Q33.0546875 116.0234375 33.6171875 116.4765625Q34.1796875 116.9296875 35.0546875 116.9296875Q35.4921875 116.9296875 35.859375 116.8125Q36.2265625 116.6953125 36.51171875 116.48046875Q36.796875 116.265625 36.9921875 115.96875Q37.1875 115.671875 37.28125 115.3203125L38.625 115.703125Q38.453125 116.2890625 38.11328125 116.74609375Q37.7734375 117.203125 37.3046875 117.52734375Q36.8359375 117.8515625 36.265625 118.01953125Q35.6953125 118.1875 35.0546875 118.1875Z M42.046875 112.765625V118.0H40.640625V106.359375H42.046875V111.3828125H41.8046875Q42.203125 110.171875 42.94140625 109.6640625Q43.6796875 109.15625 44.671875 109.15625Q45.5546875 109.15625 46.22265625 109.51953125Q46.890625 109.8828125 47.26171875 110.61328125Q47.6328125 111.34375 47.6328125 112.453125V118.0H46.21875V112.5703125Q46.21875 111.5625 45.69140625 110.9921875Q45.1640625 110.421875 44.25 110.421875Q43.625 110.421875 43.125 110.6953125Q42.625 110.96875 42.3359375 111.4921875Q42.046875 112.015625 42.046875 112.765625Z M51.5078125 112.765625V118.0H50.1015625V109.265625H51.453125L51.4609375 111.3828125H51.265625Q51.6640625 110.171875 52.40234375 109.6640625Q53.140625 109.15625 54.1328125 109.15625Q55.015625 109.15625 55.6796875 109.51953125Q56.34375 109.8828125 56.71484375 110.61328125Q57.0859375 111.34375 57.0859375 112.453125V118.0H55.6796875V112.5703125Q55.6796875 111.5625 55.15234375 110.9921875Q54.625 110.421875 53.7109375 110.421875Q53.0859375 110.421875 52.5859375 110.6953125Q52.0859375 110.96875 51.796875 111.4921875Q51.5078125 112.015625 51.5078125 112.765625Z M63.2265625 118.1875Q61.9609375 118.1875 61.04296875 117.625Q60.125 117.0625 59.62890625 116.0546875Q59.1328125 115.046875 59.1328125 113.703125Q59.1328125 112.359375 59.6171875 111.3359375Q60.1015625 110.3125 60.98828125 109.734375Q61.875 109.15625 63.0625 109.15625Q63.7578125 109.15625 64.43359375 109.38671875Q65.109375 109.6171875 65.66015625 110.12890625Q66.2109375 110.640625 66.5390625 111.4765625Q66.8671875 112.3125 66.8671875 113.5234375V114.109375H60.0859375V112.921875H66.109375L65.453125 113.359375Q65.453125 112.5 65.18359375 111.83203125Q64.9140625 111.1640625 64.3828125 110.78515625Q63.8515625 110.40625 63.0625 110.40625Q62.2734375 110.40625 61.7109375 110.79296875Q61.1484375 111.1796875 60.8515625 111.80078125Q60.5546875 112.421875 60.5546875 113.1328125V113.921875Q60.5546875 114.890625 60.890625 115.56640625Q61.2265625 116.2421875 61.83203125 116.58984375Q62.4375 116.9375 63.234375 116.9375Q63.75 116.9375 64.171875 116.7890625Q64.59375 116.640625 64.8984375 116.33984375Q65.203125 116.0390625 65.3671875 115.59375L66.7265625 115.96875Q66.5234375 116.625 66.0390625 117.125Q65.5546875 117.625 64.83984375 117.90625Q64.125 118.1875 63.2265625 118.1875Z M70.2890625 106.359375V118.0H68.8828125V106.359375Z M74.1640625 106.359375V118.0H72.7578125V106.359375Z M80.3046875 118.1875Q79.0390625 118.1875 78.12109375 117.625Q77.203125 117.0625 76.70703125 116.0546875Q76.2109375 115.046875 76.2109375 113.703125Q76.2109375 112.359375 76.6953125 111.3359375Q77.1796875 110.3125 78.06640625 109.734375Q78.953125 109.15625 80.140625 109.15625Q80.8359375 109.15625 81.51171875 109.38671875Q82.1875 109.6171875 82.73828125 110.12890625Q83.2890625 110.640625 83.6171875 111.4765625Q83.9453125 112.3125 83.9453125 113.5234375V114.109375H77.1640625V112.921875H83.1875L82.53125 113.359375Q82.53125 112.5 82.26171875 111.83203125Q81.9921875 111.1640625 81.4609375 110.78515625Q80.9296875 110.40625 80.140625 110.40625Q79.3515625 110.40625 78.7890625 110.79296875Q78.2265625 111.1796875 77.9296875 111.80078125Q77.6328125 112.421875 77.6328125 113.1328125V113.921875Q77.6328125 114.890625 77.96875 115.56640625Q78.3046875 116.2421875 78.91015625 116.58984375Q79.515625 116.9375 80.3125 116.9375Q80.828125 116.9375 81.25 116.7890625Q81.671875 116.640625 81.9765625 116.33984375Q82.28125 116.0390625 82.4453125 115.59375L83.8046875 115.96875Q83.6015625 116.625 83.1171875 117.125Q82.6328125 117.625 81.91796875 117.90625Q81.203125 118.1875 80.3046875 118.1875Z M85.9609375 118.0V109.265625H87.3203125V110.609375H87.4140625Q87.65625 109.9453125 88.27734375 109.54296875Q88.8984375 109.140625 89.6796875 109.140625Q89.8359375 109.140625 90.05078125 109.1484375Q90.265625 109.15625 90.390625 109.1640625V110.578125Q90.328125 110.5625 90.078125 110.53125Q89.828125 110.5 89.546875 110.5Q88.921875 110.5 88.42578125 110.76171875Q87.9296875 111.0234375 87.6484375 111.48046875Q87.3671875 111.9375 87.3671875 112.53125V118.0Z M101.3671875 118.15625Q99.875 118.15625 98.70703125 117.43359375Q97.5390625 116.7109375 96.87109375 115.37109375Q96.203125 114.03125 96.203125 112.1875Q96.203125 110.3359375 96.87109375 108.99609375Q97.5390625 107.65625 98.70703125 106.9296875Q99.875 106.203125 101.3671875 106.203125Q102.25 106.203125 103.03515625 106.4609375Q103.8203125 106.71875 104.4453125 107.21484375Q105.0703125 107.7109375 105.48828125 108.41796875Q105.90625 109.125 106.0625 110.0234375H104.578125Q104.453125 109.421875 104.15234375 108.96875Q103.8515625 108.515625 103.41796875 108.203125Q102.984375 107.890625 102.4609375 107.734375Q101.9375 107.578125 101.3671875 107.578125Q100.3203125 107.578125 99.4765625 108.109375Q98.6328125 108.640625 98.140625 109.66796875Q97.6484375 110.6953125 97.6484375 112.1875Q97.6484375 113.671875 98.14453125 114.69921875Q98.640625 115.7265625 99.484375 116.25390625Q100.328125 116.78125 101.3671875 116.78125Q101.9375 116.78125 102.4609375 116.62109375Q102.984375 116.4609375 103.41796875 116.15234375Q103.8515625 115.84375 104.15234375 115.38671875Q104.453125 114.9296875 104.578125 114.3359375H106.0625Q105.9140625 115.2265625 105.49609375 115.9296875Q105.078125 116.6328125 104.453125 117.1328125Q103.828125 117.6328125 103.04296875 117.89453125Q102.2578125 118.15625 101.3671875 118.15625Z M109.578125 112.765625V118.0H108.171875V106.359375H109.578125V111.3828125H109.3359375Q109.734375 110.171875 110.47265625 109.6640625Q111.2109375 109.15625 112.203125 109.15625Q113.0859375 109.15625 113.75390625 109.51953125Q114.421875 109.8828125 114.79296875 110.61328125Q115.1640625 111.34375 115.1640625 112.453125V118.0H113.75V112.5703125Q113.75 111.5625 113.22265625 110.9921875Q112.6953125 110.421875 111.78125 110.421875Q111.15625 110.421875 110.65625 110.6953125Q110.15625 110.96875 109.8671875 111.4921875Q109.578125 112.015625 109.578125 112.765625Z M120.078125 118.203125Q119.25 118.203125 118.57421875 117.890625Q117.8984375 117.578125 117.5 116.9765625Q117.1015625 116.375 117.1015625 115.515625Q117.1015625 114.765625 117.3984375 114.296875Q117.6953125 113.828125 118.19140625 113.55859375Q118.6875 113.2890625 119.2890625 113.15625Q119.890625 113.0234375 120.5 112.9453125Q121.28125 112.84375 121.7734375 112.7890625Q122.265625 112.734375 122.50390625 112.6015625Q122.7421875 112.46875 122.7421875 112.1484375V112.1015625Q122.7421875 111.5546875 122.5390625 111.17578125Q122.3359375 110.796875 121.9296875 110.59375Q121.5234375 110.390625 120.9140625 110.390625Q120.2890625 110.390625 119.84375 110.5859375Q119.3984375 110.78125 119.12109375 111.07421875Q118.84375 111.3671875 118.703125 111.671875L117.3515625 111.2265625Q117.6875 110.4296875 118.2578125 109.98046875Q118.828125 109.53125 119.515625 109.34375Q120.203125 109.15625 120.875 109.15625Q121.3125 109.15625 121.87109375 109.26171875Q122.4296875 109.3671875 122.94921875 109.6796875Q123.46875 109.9921875 123.80859375 110.60546875Q124.1484375 111.21875 124.1484375 112.2421875V118.0H122.765625V116.8125H122.671875Q122.5234375 117.1171875 122.1953125 117.44140625Q121.8671875 117.765625 121.34375 117.984375Q120.8203125 118.203125 120.078125 118.203125ZM120.3203125 116.9609375Q121.1015625 116.9609375 121.640625 116.65625Q122.1796875 116.3515625 122.4609375 115.86328125Q122.7421875 115.375 122.7421875 114.84375V113.6328125Q122.65625 113.734375 122.3671875 113.81640625Q122.078125 113.8984375 121.70703125 113.9609375Q121.3359375 114.0234375 120.98828125 114.06640625Q120.640625 114.109375 120.4375 114.1328125Q119.9296875 114.1953125 119.48828125 114.34765625Q119.046875 114.5 118.78125 114.79296875Q118.515625 115.0859375 118.515625 115.5859375Q118.515625 116.0390625 118.75 116.34375Q118.984375 116.6484375 119.390625 116.8046875Q119.796875 116.9609375 120.3203125 116.9609375Z M130.0546875 109.265625V110.46875H125.5390625V109.265625ZM126.8515625 107.1875H128.2578125V115.734375Q128.2578125 116.3203125 128.49609375 116.58984375Q128.734375 116.859375 129.2890625 116.859375Q129.421875 116.859375 129.62890625 116.828125Q129.8359375 116.796875 130.0078125 116.765625L130.296875 117.953125Q130.078125 118.03125 129.80078125 118.0703125Q129.5234375 118.109375 129.25 118.109375Q128.1171875 118.109375 127.484375 117.51171875Q126.8515625 116.9140625 126.8515625 115.84375Z M138.796875 118.203125Q137.96875 118.203125 137.29296875 117.890625Q136.6171875 117.578125 136.21875 116.9765625Q135.8203125 116.375 135.8203125 115.515625Q135.8203125 114.765625 136.1171875 114.296875Q136.4140625 113.828125 136.91015625 113.55859375Q137.40625 113.2890625 138.0078125 113.15625Q138.609375 113.0234375 139.21875 112.9453125Q140.0 112.84375 140.4921875 112.7890625Q140.984375 112.734375 141.22265625 112.6015625Q141.4609375 112.46875 141.4609375 112.1484375V112.1015625Q141.4609375 111.5546875 141.2578125 111.17578125Q141.0546875 110.796875 140.6484375 110.59375Q140.2421875 110.390625 139.6328125 110.390625Q139.0078125 110.390625 138.5625 110.5859375Q138.1171875 110.78125 137.83984375 111.07421875Q137.5625 111.3671875 137.421875 111.671875L136.0703125 111.2265625Q136.40625 110.4296875 136.9765625 109.98046875Q137.546875 109.53125 138.234375 109.34375Q138.921875 109.15625 139.59375 109.15625Q140.03125 109.15625 140.58984375 109.26171875Q141.1484375 109.3671875 141.66796875 109.6796875Q142.1875 109.9921875 142.52734375 110.60546875Q142.8671875 111.21875 142.8671875 112.2421875V118.0H141.484375V116.8125H141.390625Q141.2421875 117.1171875 140.9140625 117.44140625Q140.5859375 117.765625 140.0625 117.984375Q139.5390625 118.203125 138.796875 118.203125ZM139.0390625 116.9609375Q139.8203125 116.9609375 140.359375 116.65625Q140.8984375 116.3515625 141.1796875 115.86328125Q141.4609375 115.375 141.4609375 114.84375V113.6328125Q141.375 113.734375 141.0859375 113.81640625Q140.796875 113.8984375 140.42578125 113.9609375Q140.0546875 114.0234375 139.70703125 114.06640625Q139.359375 114.109375 139.15625 114.1328125Q138.6484375 114.1953125 138.20703125 114.34765625Q137.765625 114.5 137.5 114.79296875Q137.234375 115.0859375 137.234375 115.5859375Q137.234375 116.0390625 137.46875 116.34375Q137.703125 116.6484375 138.109375 116.8046875Q138.515625 116.9609375 139.0390625 116.9609375Z M148.296875 118.109375Q147.4140625 118.109375 146.74609375 117.74609375Q146.078125 117.3828125 145.70703125 116.6484375Q145.3359375 115.9140625 145.3359375 114.8125V109.265625H146.7421875V114.6953125Q146.7421875 115.703125 147.2734375 116.2734375Q147.8046875 116.84375 148.71875 116.84375Q149.34375 116.84375 149.83984375 116.5703125Q150.3359375 116.296875 150.625 115.76953125Q150.9140625 115.2421875 150.9140625 114.5V109.265625H152.328125V118.0H150.96875V115.8828125H151.15625Q150.75 117.109375 150.00390625 117.609375Q149.2578125 118.109375 148.296875 118.109375Z M158.859375 109.265625V110.46875H153.71875V109.265625ZM155.4375 118.0V108.1015625Q155.4375 107.34375 155.79296875 106.8359375Q156.1484375 106.328125 156.71875 106.0703125Q157.2890625 105.8125 157.921875 105.8125Q158.421875 105.8125 158.75 105.89453125Q159.078125 105.9765625 159.234375 106.046875L158.84375 107.25Q158.734375 107.2109375 158.55859375 107.1640625Q158.3828125 107.1171875 158.0859375 107.1171875Q157.4375 107.1171875 157.140625 107.44921875Q156.84375 107.78125 156.84375 108.4140625V118.0Z M165.390625 118.0V106.359375H166.875V116.6875H172.265625V118.0Z M174.265625 118.0V109.265625H175.671875V118.0ZM174.9765625 107.8359375Q174.578125 107.8359375 174.2890625 107.5625Q174.0 107.2890625 174.0 106.90625Q174.0 106.515625 174.2890625 106.24609375Q174.578125 105.9765625 174.9765625 105.9765625Q175.3828125 105.9765625 175.671875 106.24609375Q175.9609375 106.515625 175.9609375 106.90625Q175.9609375 107.2890625 175.671875 107.5625Q175.3828125 107.8359375 174.9765625 107.8359375Z M182.1953125 118.1875Q181.3671875 118.1875 180.859375 117.90234375Q180.3515625 117.6171875 180.078125 117.25390625Q179.8046875 116.890625 179.65625 116.6484375H179.5V118.0H178.140625V106.359375H179.546875V110.6640625H179.65625Q179.8046875 110.4296875 180.0703125 110.07421875Q180.3359375 109.71875 180.8359375 109.4375Q181.3359375 109.15625 182.1875 109.15625Q183.28125 109.15625 184.11328125 109.703125Q184.9453125 110.25 185.41796875 111.26171875Q185.890625 112.2734375 185.890625 113.65625Q185.890625 115.046875 185.421875 116.0625Q184.953125 117.078125 184.12109375 117.6328125Q183.2890625 118.1875 182.1953125 118.1875ZM181.984375 116.9296875Q182.8046875 116.9296875 183.35546875 116.48828125Q183.90625 116.046875 184.18359375 115.30078125Q184.4609375 114.5546875 184.4609375 113.640625Q184.4609375 112.734375 184.1875 112.00390625Q183.9140625 111.2734375 183.36328125 110.84375Q182.8125 110.4140625 181.984375 110.4140625Q181.1796875 110.4140625 180.6328125 110.8203125Q180.0859375 111.2265625 179.80859375 111.94921875Q179.53125 112.671875 179.53125 113.640625Q179.53125 114.609375 179.8125 115.3515625Q180.09375 116.09375 180.64453125 116.51171875Q181.1953125 116.9296875 181.984375 116.9296875Z M191.609375 118.1875Q190.34375 118.1875 189.42578125 117.625Q188.5078125 117.0625 188.01171875 116.0546875Q187.515625 115.046875 187.515625 113.703125Q187.515625 112.359375 188.0 111.3359375Q188.484375 110.3125 189.37109375 109.734375Q190.2578125 109.15625 191.4453125 109.15625Q192.140625 109.15625 192.81640625 109.38671875Q193.4921875 109.6171875 194.04296875 110.12890625Q194.59375 110.640625 194.921875 111.4765625Q195.25 112.3125 195.25 113.5234375V114.109375H188.46875V112.921875H194.4921875L193.8359375 113.359375Q193.8359375 112.5 193.56640625 111.83203125Q193.296875 111.1640625 192.765625 110.78515625Q192.234375 110.40625 191.4453125 110.40625Q190.65625 110.40625 190.09375 110.79296875Q189.53125 111.1796875 189.234375 111.80078125Q188.9375 112.421875 188.9375 113.1328125V113.921875Q188.9375 114.890625 189.2734375 115.56640625Q189.609375 116.2421875 190.21484375 116.58984375Q190.8203125 116.9375 191.6171875 116.9375Q192.1328125 116.9375 192.5546875 116.7890625Q192.9765625 116.640625 193.28125 116.33984375Q193.5859375 116.0390625 193.75 115.59375L195.109375 115.96875Q194.90625 116.625 194.421875 117.125Q193.9375 117.625 193.22265625 117.90625Q192.5078125 118.1875 191.609375 118.1875Z M197.265625 118.0V109.265625H198.625V110.609375H198.71875Q198.9609375 109.9453125 199.58203125 109.54296875Q200.203125 109.140625 200.984375 109.140625Q201.140625 109.140625 201.35546875 109.1484375Q201.5703125 109.15625 201.6953125 109.1640625V110.578125Q201.6328125 110.5625 201.3828125 110.53125Q201.1328125 110.5 200.8515625 110.5Q200.2265625 110.5 199.73046875 110.76171875Q199.234375 111.0234375 198.953125 111.48046875Q198.671875 111.9375 198.671875 112.53125V118.0Z M205.734375 118.203125Q204.90625 118.203125 204.23046875 117.890625Q203.5546875 117.578125 203.15625 116.9765625Q202.7578125 116.375 202.7578125 115.515625Q202.7578125 114.765625 203.0546875 114.296875Q203.3515625 113.828125 203.84765625 113.55859375Q204.34375 113.2890625 204.9453125 113.15625Q205.546875 113.0234375 206.15625 112.9453125Q206.9375 112.84375 207.4296875 112.7890625Q207.921875 112.734375 208.16015625 112.6015625Q208.3984375 112.46875 208.3984375 112.1484375V112.1015625Q208.3984375 111.5546875 208.1953125 111.17578125Q207.9921875 110.796875 207.5859375 110.59375Q207.1796875 110.390625 206.5703125 110.390625Q205.9453125 110.390625 205.5 110.5859375Q205.0546875 110.78125 204.77734375 111.07421875Q204.5 111.3671875 204.359375 111.671875L203.0078125 111.2265625Q203.34375 110.4296875 203.9140625 109.98046875Q204.484375 109.53125 205.171875 109.34375Q205.859375 109.15625 206.53125 109.15625Q206.96875 109.15625 207.52734375 109.26171875Q208.0859375 109.3671875 208.60546875 109.6796875Q209.125 109.9921875 209.46484375 110.60546875Q209.8046875 111.21875 209.8046875 112.2421875V118.0H208.421875V116.8125H208.328125Q208.1796875 117.1171875 207.8515625 117.44140625Q207.5234375 117.765625 207.0 117.984375Q206.4765625 118.203125 205.734375 118.203125ZM205.9765625 116.9609375Q206.7578125 116.9609375 207.296875 116.65625Q207.8359375 116.3515625 208.1171875 115.86328125Q208.3984375 115.375 208.3984375 114.84375V113.6328125Q208.3125 113.734375 208.0234375 113.81640625Q207.734375 113.8984375 207.36328125 113.9609375Q206.9921875 114.0234375 206.64453125 114.06640625Q206.296875 114.109375 206.09375 114.1328125Q205.5859375 114.1953125 205.14453125 114.34765625Q204.703125 114.5 204.4375 114.79296875Q204.171875 115.0859375 204.171875 115.5859375Q204.171875 116.0390625 204.40625 116.34375Q204.640625 116.6484375 205.046875 116.8046875Q205.453125 116.9609375 205.9765625 116.9609375Z M213.34375 118.1015625Q212.90625 118.1015625 212.59765625 117.79296875Q212.2890625 117.484375 212.2890625 117.046875Q212.2890625 116.609375 212.59765625 116.30078125Q212.90625 115.9921875 213.34375 115.9921875Q213.78125 115.9921875 214.08984375 116.30078125Q214.3984375 116.609375 214.3984375 117.046875Q214.3984375 117.484375 214.08984375 117.79296875Q213.78125 118.1015625 213.34375 118.1015625Z M221.765625 118.15625Q220.2734375 118.15625 219.10546875 117.43359375Q217.9375 116.7109375 217.26953125 115.37109375Q216.6015625 114.03125 216.6015625 112.1875Q216.6015625 110.3359375 217.26953125 108.99609375Q217.9375 107.65625 219.10546875 106.9296875Q220.2734375 106.203125 221.765625 106.203125Q222.6484375 106.203125 223.43359375 106.4609375Q224.21875 106.71875 224.84375 107.21484375Q225.46875 107.7109375 225.88671875 108.41796875Q226.3046875 109.125 226.4609375 110.0234375H224.9765625Q224.8515625 109.421875 224.55078125 108.96875Q224.25 108.515625 223.81640625 108.203125Q223.3828125 107.890625 222.859375 107.734375Q222.3359375 107.578125 221.765625 107.578125Q220.71875 107.578125 219.875 108.109375Q219.03125 108.640625 218.5390625 109.66796875Q218.046875 110.6953125 218.046875 112.1875Q218.046875 113.671875 218.54296875 114.69921875Q219.0390625 115.7265625 219.8828125 116.25390625Q220.7265625 116.78125 221.765625 116.78125Q222.3359375 116.78125 222.859375 116.62109375Q223.3828125 116.4609375 223.81640625 116.15234375Q224.25 115.84375 224.55078125 115.38671875Q224.8515625 114.9296875 224.9765625 114.3359375H226.4609375Q226.3125 115.2265625 225.89453125 115.9296875Q225.4765625 116.6328125 224.8515625 117.1328125Q224.2265625 117.6328125 223.44140625 117.89453125Q222.65625 118.15625 221.765625 118.15625Z M229.9765625 112.765625V118.0H228.5703125V106.359375H229.9765625V111.3828125H229.734375Q230.1328125 110.171875 230.87109375 109.6640625Q231.609375 109.15625 232.6015625 109.15625Q233.484375 109.15625 234.15234375 109.51953125Q234.8203125 109.8828125 235.19140625 110.61328125Q235.5625 111.34375 235.5625 112.453125V118.0H234.1484375V112.5703125Q234.1484375 111.5625 233.62109375 110.9921875Q233.09375 110.421875 232.1796875 110.421875Q231.5546875 110.421875 231.0546875 110.6953125Q230.5546875 110.96875 230.265625 111.4921875Q229.9765625 112.015625 229.9765625 112.765625Z M240.4765625 118.203125Q239.6484375 118.203125 238.97265625 117.890625Q238.296875 117.578125 237.8984375 116.9765625Q237.5 116.375 237.5 115.515625Q237.5 114.765625 237.796875 114.296875Q238.09375 113.828125 238.58984375 113.55859375Q239.0859375 113.2890625 239.6875 113.15625Q240.2890625 113.0234375 240.8984375 112.9453125Q241.6796875 112.84375 242.171875 112.7890625Q242.6640625 112.734375 242.90234375 112.6015625Q243.140625 112.46875 243.140625 112.1484375V112.1015625Q243.140625 111.5546875 242.9375 111.17578125Q242.734375 110.796875 242.328125 110.59375Q241.921875 110.390625 241.3125 110.390625Q240.6875 110.390625 240.2421875 110.5859375Q239.796875 110.78125 239.51953125 111.07421875Q239.2421875 111.3671875 239.1015625 111.671875L237.75 111.2265625Q238.0859375 110.4296875 238.65625 109.98046875Q239.2265625 109.53125 239.9140625 109.34375Q240.6015625 109.15625 241.2734375 109.15625Q241.7109375 109.15625 242.26953125 109.26171875Q242.828125 109.3671875 243.34765625 109.6796875Q243.8671875 109.9921875 244.20703125 110.60546875Q244.546875 111.21875 244.546875 112.2421875V118.0H243.1640625V116.8125H243.0703125Q242.921875 117.1171875 242.59375 117.44140625Q242.265625 117.765625 241.7421875 117.984375Q241.21875 118.203125 240.4765625 118.203125ZM240.71875 116.9609375Q241.5 116.9609375 242.0390625 116.65625Q242.578125 116.3515625 242.859375 115.86328125Q243.140625 115.375 243.140625 114.84375V113.6328125Q243.0546875 113.734375 242.765625 113.81640625Q242.4765625 113.8984375 242.10546875 113.9609375Q241.734375 114.0234375 241.38671875 114.06640625Q241.0390625 114.109375 240.8359375 114.1328125Q240.328125 114.1953125 239.88671875 114.34765625Q239.4453125 114.5 239.1796875 114.79296875Q238.9140625 115.0859375 238.9140625 115.5859375Q238.9140625 116.0390625 239.1484375 116.34375Q239.3828125 116.6484375 239.7890625 116.8046875Q240.1953125 116.9609375 240.71875 116.9609375Z M250.453125 109.265625V110.46875H245.9375V109.265625ZM247.25 107.1875H248.65625V115.734375Q248.65625 116.3203125 248.89453125 116.58984375Q249.1328125 116.859375 249.6875 116.859375Q249.8203125 116.859375 250.02734375 116.828125Q250.234375 116.796875 250.40625 116.765625L250.6953125 117.953125Q250.4765625 118.03125 250.19921875 118.0703125Q249.921875 118.109375 249.6484375 118.109375Q248.515625 118.109375 247.8828125 117.51171875Q247.25 116.9140625 247.25 115.84375Z M252.015625 120.8046875 252.703125 116.375H254.3125L253.09375 120.8046875Z M264.8984375 121.453125Q263.9296875 121.453125 263.22265625 121.20703125Q262.515625 120.9609375 262.046875 120.5546875Q261.578125 120.1484375 261.3046875 119.671875L262.4453125 118.9375Q262.6328125 119.1875 262.91015625 119.4921875Q263.1875 119.796875 263.66015625 120.01171875Q264.1328125 120.2265625 264.8984375 120.2265625Q265.9453125 120.2265625 266.62109375 119.7265625Q267.296875 119.2265625 267.296875 118.1484375V116.3984375H267.1640625Q267.015625 116.6484375 266.74609375 116.9921875Q266.4765625 117.3359375 265.97265625 117.59765625Q265.46875 117.859375 264.625 117.859375Q263.578125 117.859375 262.7421875 117.36328125Q261.90625 116.8671875 261.421875 115.9140625Q260.9375 114.9609375 260.9375 113.59375Q260.9375 112.2421875 261.4140625 111.24609375Q261.890625 110.25 262.73046875 109.703125Q263.5703125 109.15625 264.65625 109.15625Q265.5 109.15625 266.00390625 109.43359375Q266.5078125 109.7109375 266.78125 110.0703125Q267.0546875 110.4296875 267.203125 110.6640625H267.3359375V109.265625H268.703125V118.2265625Q268.703125 119.3515625 268.1953125 120.06640625Q267.6875 120.78125 266.82421875 121.1171875Q265.9609375 121.453125 264.8984375 121.453125ZM264.859375 116.609375Q265.65625 116.609375 266.203125 116.24609375Q266.75 115.8828125 267.03125 115.19921875Q267.3125 114.515625 267.3125 113.5625Q267.3125 112.6328125 267.03515625 111.92578125Q266.7578125 111.21875 266.2109375 110.81640625Q265.6640625 110.4140625 264.859375 110.4140625Q264.03125 110.4140625 263.4765625 110.83984375Q262.921875 111.265625 262.64453125 111.9765625Q262.3671875 112.6875 262.3671875 113.5625Q262.3671875 114.4609375 262.6484375 115.1484375Q262.9296875 115.8359375 263.484375 116.22265625Q264.0390625 116.609375 264.859375 116.609375Z M273.6171875 118.203125Q272.7890625 118.203125 272.11328125 117.890625Q271.4375 117.578125 271.0390625 116.9765625Q270.640625 116.375 270.640625 115.515625Q270.640625 114.765625 270.9375 114.296875Q271.234375 113.828125 271.73046875 113.55859375Q272.2265625 113.2890625 272.828125 113.15625Q273.4296875 113.0234375 274.0390625 112.9453125Q274.8203125 112.84375 275.3125 112.7890625Q275.8046875 112.734375 276.04296875 112.6015625Q276.28125 112.46875 276.28125 112.1484375V112.1015625Q276.28125 111.5546875 276.078125 111.17578125Q275.875 110.796875 275.46875 110.59375Q275.0625 110.390625 274.453125 110.390625Q273.828125 110.390625 273.3828125 110.5859375Q272.9375 110.78125 272.66015625 111.07421875Q272.3828125 111.3671875 272.2421875 111.671875L270.890625 111.2265625Q271.2265625 110.4296875 271.796875 109.98046875Q272.3671875 109.53125 273.0546875 109.34375Q273.7421875 109.15625 274.4140625 109.15625Q274.8515625 109.15625 275.41015625 109.26171875Q275.96875 109.3671875 276.48828125 109.6796875Q277.0078125 109.9921875 277.34765625 110.60546875Q277.6875 111.21875 277.6875 112.2421875V118.0H276.3046875V116.8125H276.2109375Q276.0625 117.1171875 275.734375 117.44140625Q275.40625 117.765625 274.8828125 117.984375Q274.359375 118.203125 273.6171875 118.203125ZM273.859375 116.9609375Q274.640625 116.9609375 275.1796875 116.65625Q275.71875 116.3515625 276.0 115.86328125Q276.28125 115.375 276.28125 114.84375V113.6328125Q276.1953125 113.734375 275.90625 113.81640625Q275.6171875 113.8984375 275.24609375 113.9609375Q274.875 114.0234375 274.52734375 114.06640625Q274.1796875 114.109375 273.9765625 114.1328125Q273.46875 114.1953125 273.02734375 114.34765625Q272.5859375 114.5 272.3203125 114.79296875Q272.0546875 115.0859375 272.0546875 115.5859375Q272.0546875 116.0390625 272.2890625 116.34375Q272.5234375 116.6484375 272.9296875 116.8046875Q273.3359375 116.9609375 273.859375 116.9609375Z M281.5625 112.765625V118.0H280.15625V109.265625H281.5078125L281.515625 111.3828125H281.3203125Q281.71875 110.171875 282.45703125 109.6640625Q283.1953125 109.15625 284.1875 109.15625Q285.0703125 109.15625 285.734375 109.51953125Q286.3984375 109.8828125 286.76953125 110.61328125Q287.140625 111.34375 287.140625 112.453125V118.0H285.734375V112.5703125Q285.734375 111.5625 285.20703125 110.9921875Q284.6796875 110.421875 283.765625 110.421875Q283.140625 110.421875 282.640625 110.6953125Q282.140625 110.96875 281.8515625 111.4921875Q281.5625 112.015625 281.5625 112.765625Z M289.359375 118.0V116.953125L294.2578125 110.65625V110.5703125H289.515625V109.265625H296.0703125V110.3828125L291.3125 116.609375V116.6953125H296.2265625V118.0Z" fill="#e8e8f0"/><path d="M24.7890625 142.1875Q23.6015625 142.1875 22.70703125 141.625Q21.8125 141.0625 21.3125 140.046875Q20.8125 139.03125 20.8125 137.6875Q20.8125 136.3203125 21.3125 135.30078125Q21.8125 134.28125 22.70703125 133.71875Q23.6015625 133.15625 24.7890625 133.15625Q25.984375 133.15625 26.8828125 133.71875Q27.78125 134.28125 28.28125 135.30078125Q28.78125 136.3203125 28.78125 137.6875Q28.78125 139.03125 28.28125 140.046875Q27.78125 141.0625 26.8828125 141.625Q25.984375 142.1875 24.7890625 142.1875ZM24.7890625 140.9296875Q25.671875 140.9296875 26.2421875 140.4765625Q26.8125 140.0234375 27.0859375 139.28515625Q27.359375 138.546875 27.359375 137.6875Q27.359375 136.8203125 27.0859375 136.07421875Q26.8125 135.328125 26.2421875 134.87109375Q25.671875 134.4140625 24.7890625 134.4140625Q23.9140625 134.4140625 23.3515625 134.87109375Q22.7890625 135.328125 22.515625 136.0703125Q22.2421875 136.8125 22.2421875 137.6875Q22.2421875 138.546875 22.515625 139.28515625Q22.7890625 140.0234375 23.3515625 140.4765625Q23.9140625 140.9296875 24.7890625 140.9296875Z M32.234375 136.765625V142.0H30.828125V130.359375H32.234375V135.3828125H31.9921875Q32.390625 134.171875 33.12890625 133.6640625Q33.8671875 133.15625 34.859375 133.15625Q35.7421875 133.15625 36.41015625 133.51953125Q37.078125 133.8828125 37.44921875 134.61328125Q37.8203125 135.34375 37.8203125 136.453125V142.0H36.40625V136.5703125Q36.40625 135.5625 35.87890625 134.9921875Q35.3515625 134.421875 34.4375 134.421875Q33.8125 134.421875 33.3125 134.6953125Q32.8125 134.96875 32.5234375 135.4921875Q32.234375 136.015625 32.234375 136.765625Z M41.6953125 136.765625V142.0H40.2890625V133.265625H41.640625L41.6484375 135.3828125H41.453125Q41.8515625 134.171875 42.58984375 133.6640625Q43.328125 133.15625 44.3203125 133.15625Q45.203125 133.15625 45.8671875 133.51953125Q46.53125 133.8828125 46.90234375 134.61328125Q47.2734375 135.34375 47.2734375 136.453125V142.0H45.8671875V136.5703125Q45.8671875 135.5625 45.33984375 134.9921875Q44.8125 134.421875 43.8984375 134.421875Q43.2734375 134.421875 42.7734375 134.6953125Q42.2734375 134.96875 41.984375 135.4921875Q41.6953125 136.015625 41.6953125 136.765625Z M53.4140625 142.1875Q52.1484375 142.1875 51.23046875 141.625Q50.3125 141.0625 49.81640625 140.0546875Q49.3203125 139.046875 49.3203125 137.703125Q49.3203125 136.359375 49.8046875 135.3359375Q50.2890625 134.3125 51.17578125 133.734375Q52.0625 133.15625 53.25 133.15625Q53.9453125 133.15625 54.62109375 133.38671875Q55.296875 133.6171875 55.84765625 134.12890625Q56.3984375 134.640625 56.7265625 135.4765625Q57.0546875 136.3125 57.0546875 137.5234375V138.109375H50.2734375V136.921875H56.296875L55.640625 137.359375Q55.640625 136.5 55.37109375 135.83203125Q55.1015625 135.1640625 54.5703125 134.78515625Q54.0390625 134.40625 53.25 134.40625Q52.4609375 134.40625 51.8984375 134.79296875Q51.3359375 135.1796875 51.0390625 135.80078125Q50.7421875 136.421875 50.7421875 137.1328125V137.921875Q50.7421875 138.890625 51.078125 139.56640625Q51.4140625 140.2421875 52.01953125 140.58984375Q52.625 140.9375 53.421875 140.9375Q53.9375 140.9375 54.359375 140.7890625Q54.78125 140.640625 55.0859375 140.33984375Q55.390625 140.0390625 55.5546875 139.59375L56.9140625 139.96875Q56.7109375 140.625 56.2265625 141.125Q55.7421875 141.625 55.02734375 141.90625Q54.3125 142.1875 53.4140625 142.1875Z M67.375 142.0H64.5625V140.6875H67.28125Q68.703125 140.6875 69.63671875 140.14453125Q70.5703125 139.6015625 71.03125 138.5859375Q71.4921875 137.5703125 71.4921875 136.15625Q71.4921875 134.7578125 71.03515625 133.75390625Q70.578125 132.75 69.67578125 132.2109375Q68.7734375 131.671875 67.421875 131.671875H64.5V130.359375H67.5234375Q69.2265625 130.359375 70.43359375 131.0546875Q71.640625 131.75 72.28515625 133.05078125Q72.9296875 134.3515625 72.9296875 136.15625Q72.9296875 137.9765625 72.28125 139.28515625Q71.6328125 140.59375 70.390625 141.296875Q69.1484375 142.0 67.375 142.0ZM65.2265625 130.359375V142.0H63.7421875V130.359375Z M75.1171875 142.0V133.265625H76.5234375V142.0ZM75.828125 131.8359375Q75.4296875 131.8359375 75.140625 131.5625Q74.8515625 131.2890625 74.8515625 130.90625Q74.8515625 130.515625 75.140625 130.24609375Q75.4296875 129.9765625 75.828125 129.9765625Q76.234375 129.9765625 76.5234375 130.24609375Q76.8125 130.515625 76.8125 130.90625Q76.8125 131.2890625 76.5234375 131.5625Q76.234375 131.8359375 75.828125 131.8359375Z M81.9609375 142.1875Q81.0625 142.1875 80.36328125 141.92578125Q79.6640625 141.6640625 79.2109375 141.1484375Q78.7578125 140.6328125 78.6015625 139.8828125L79.9375 139.5625Q80.125 140.28125 80.64453125 140.6171875Q81.1640625 140.953125 81.9453125 140.953125Q82.859375 140.953125 83.40234375 140.5625Q83.9453125 140.171875 83.9453125 139.6328125Q83.9453125 139.1796875 83.62890625 138.87890625Q83.3125 138.578125 82.6640625 138.4296875L81.2109375 138.0859375Q80.0234375 137.8046875 79.4453125 137.21484375Q78.8671875 136.625 78.8671875 135.703125Q78.8671875 134.953125 79.2890625 134.37890625Q79.7109375 133.8046875 80.44140625 133.48046875Q81.171875 133.15625 82.1015625 133.15625Q83.0 133.15625 83.62890625 133.42578125Q84.2578125 133.6953125 84.65234375 134.16796875Q85.046875 134.640625 85.2421875 135.2578125L83.96875 135.5859375Q83.7890625 135.1171875 83.37109375 134.734375Q82.953125 134.3515625 82.109375 134.3515625Q81.328125 134.3515625 80.80859375 134.7109375Q80.2890625 135.0703125 80.2890625 135.6171875Q80.2890625 136.1015625 80.640625 136.39453125Q80.9921875 136.6875 81.7578125 136.8671875L83.078125 137.1796875Q84.265625 137.4609375 84.8359375 138.05078125Q85.40625 138.640625 85.40625 139.5390625Q85.40625 140.3046875 84.97265625 140.90234375Q84.5390625 141.5 83.76171875 141.84375Q82.984375 142.1875 81.9609375 142.1875Z M90.9921875 142.1875Q89.8046875 142.1875 88.91015625 141.625Q88.015625 141.0625 87.515625 140.046875Q87.015625 139.03125 87.015625 137.6875Q87.015625 136.3203125 87.515625 135.30078125Q88.015625 134.28125 88.91015625 133.71875Q89.8046875 133.15625 90.9921875 133.15625Q91.625 133.15625 92.1875 133.3203125Q92.75 133.484375 93.21484375 133.79296875Q93.6796875 134.1015625 94.015625 134.55078125Q94.3515625 135.0 94.53125 135.5703125L93.1796875 135.953125Q93.0859375 135.6171875 92.890625 135.3359375Q92.6953125 135.0546875 92.41796875 134.84765625Q92.140625 134.640625 91.78125 134.52734375Q91.421875 134.4140625 90.9921875 134.4140625Q90.1171875 134.4140625 89.5546875 134.87109375Q88.9921875 135.328125 88.71875 136.0703125Q88.4453125 136.8125 88.4453125 137.6875Q88.4453125 138.546875 88.71875 139.28515625Q88.9921875 140.0234375 89.5546875 140.4765625Q90.1171875 140.9296875 90.9921875 140.9296875Q91.4296875 140.9296875 91.796875 140.8125Q92.1640625 140.6953125 92.44921875 140.48046875Q92.734375 140.265625 92.9296875 139.96875Q93.125 139.671875 93.21875 139.3203125L94.5625 139.703125Q94.390625 140.2890625 94.05078125 140.74609375Q93.7109375 141.203125 93.2421875 141.52734375Q92.7734375 141.8515625 92.203125 142.01953125Q91.6328125 142.1875 90.9921875 142.1875Z M100.1328125 142.1875Q98.9453125 142.1875 98.05078125 141.625Q97.15625 141.0625 96.65625 140.046875Q96.15625 139.03125 96.15625 137.6875Q96.15625 136.3203125 96.65625 135.30078125Q97.15625 134.28125 98.05078125 133.71875Q98.9453125 133.15625 100.1328125 133.15625Q101.328125 133.15625 102.2265625 133.71875Q103.125 134.28125 103.625 135.30078125Q104.125 136.3203125 104.125 137.6875Q104.125 139.03125 103.625 140.046875Q103.125 141.0625 102.2265625 141.625Q101.328125 142.1875 100.1328125 142.1875ZM100.1328125 140.9296875Q101.015625 140.9296875 101.5859375 140.4765625Q102.15625 140.0234375 102.4296875 139.28515625Q102.703125 138.546875 102.703125 137.6875Q102.703125 136.8203125 102.4296875 136.07421875Q102.15625 135.328125 101.5859375 134.87109375Q101.015625 134.4140625 100.1328125 134.4140625Q99.2578125 134.4140625 98.6953125 134.87109375Q98.1328125 135.328125 97.859375 136.0703125Q97.5859375 136.8125 97.5859375 137.6875Q97.5859375 138.546875 97.859375 139.28515625Q98.1328125 140.0234375 98.6953125 140.4765625Q99.2578125 140.9296875 100.1328125 140.9296875Z M106.171875 142.0V133.265625H107.53125V134.609375H107.625Q107.8671875 133.9453125 108.48828125 133.54296875Q109.109375 133.140625 109.890625 133.140625Q110.046875 133.140625 110.26171875 133.1484375Q110.4765625 133.15625 110.6015625 133.1640625V134.578125Q110.5390625 134.5625 110.2890625 134.53125Q110.0390625 134.5 109.7578125 134.5Q109.1328125 134.5 108.63671875 134.76171875Q108.140625 135.0234375 107.859375 135.48046875Q107.578125 135.9375 107.578125 136.53125V142.0Z M115.46875 142.1875Q114.3828125 142.1875 113.546875 141.6328125Q112.7109375 141.078125 112.2421875 140.0625Q111.7734375 139.046875 111.7734375 137.65625Q111.7734375 136.2734375 112.24609375 135.26171875Q112.71875 134.25 113.5546875 133.703125Q114.390625 133.15625 115.4765625 133.15625Q116.328125 133.15625 116.828125 133.4375Q117.328125 133.71875 117.59765625 134.07421875Q117.8671875 134.4296875 118.0078125 134.6640625H118.1171875V130.359375H119.5234375V142.0H118.1640625V140.6484375H118.0078125Q117.8671875 140.890625 117.58984375 141.25390625Q117.3125 141.6171875 116.80859375 141.90234375Q116.3046875 142.1875 115.46875 142.1875ZM115.6796875 140.9296875Q116.4765625 140.9296875 117.0234375 140.51171875Q117.5703125 140.09375 117.8515625 139.3515625Q118.1328125 138.609375 118.1328125 137.640625Q118.1328125 136.671875 117.85546875 135.94921875Q117.578125 135.2265625 117.03125 134.8203125Q116.484375 134.4140625 115.6796875 134.4140625Q114.8515625 134.4140625 114.30078125 134.84375Q113.75 135.2734375 113.4765625 136.00390625Q113.203125 136.734375 113.203125 137.640625Q113.203125 138.5546875 113.48046875 139.30078125Q113.7578125 140.046875 114.3125 140.48828125Q114.8671875 140.9296875 115.6796875 140.9296875Z M123.0625 142.1015625Q122.625 142.1015625 122.31640625 141.79296875Q122.0078125 141.484375 122.0078125 141.046875Q122.0078125 140.609375 122.31640625 140.30078125Q122.625 139.9921875 123.0625 139.9921875Q123.5 139.9921875 123.80859375 140.30078125Q124.1171875 140.609375 124.1171875 141.046875Q124.1171875 141.484375 123.80859375 141.79296875Q123.5 142.1015625 123.0625 142.1015625Z M130.2734375 142.0 134.5 130.359375H136.21875L140.5 142.0H138.9375L136.46875 135.09375Q136.2421875 134.453125 135.94140625 133.49609375Q135.640625 132.5390625 135.2109375 131.0546875H135.4921875Q135.0703125 132.5546875 134.76171875 133.52734375Q134.453125 134.5 134.25 135.09375L131.8515625 142.0ZM132.3984375 138.75V137.453125H138.375V138.75Z M145.1015625 142.109375Q144.21875 142.109375 143.55078125 141.74609375Q142.8828125 141.3828125 142.51171875 140.6484375Q142.140625 139.9140625 142.140625 138.8125V133.265625H143.546875V138.6953125Q143.546875 139.703125 144.078125 140.2734375Q144.609375 140.84375 145.5234375 140.84375Q146.1484375 140.84375 146.64453125 140.5703125Q147.140625 140.296875 147.4296875 139.76953125Q147.71875 139.2421875 147.71875 138.5V133.265625H149.1328125V142.0H147.7734375V139.8828125H147.9609375Q147.5546875 141.109375 146.80859375 141.609375Q146.0625 142.109375 145.1015625 142.109375Z M155.15625 142.1875Q153.96875 142.1875 153.07421875 141.625Q152.1796875 141.0625 151.6796875 140.046875Q151.1796875 139.03125 151.1796875 137.6875Q151.1796875 136.3203125 151.6796875 135.30078125Q152.1796875 134.28125 153.07421875 133.71875Q153.96875 133.15625 155.15625 133.15625Q155.7890625 133.15625 156.3515625 133.3203125Q156.9140625 133.484375 157.37890625 133.79296875Q157.84375 134.1015625 158.1796875 134.55078125Q158.515625 135.0 158.6953125 135.5703125L157.34375 135.953125Q157.25 135.6171875 157.0546875 135.3359375Q156.859375 135.0546875 156.58203125 134.84765625Q156.3046875 134.640625 155.9453125 134.52734375Q155.5859375 134.4140625 155.15625 134.4140625Q154.28125 134.4140625 153.71875 134.87109375Q153.15625 135.328125 152.8828125 136.0703125Q152.609375 136.8125 152.609375 137.6875Q152.609375 138.546875 152.8828125 139.28515625Q153.15625 140.0234375 153.71875 140.4765625Q154.28125 140.9296875 155.15625 140.9296875Q155.59375 140.9296875 155.9609375 140.8125Q156.328125 140.6953125 156.61328125 140.48046875Q156.8984375 140.265625 157.09375 139.96875Q157.2890625 139.671875 157.3828125 139.3203125L158.7265625 139.703125Q158.5546875 140.2890625 158.21484375 140.74609375Q157.875 141.203125 157.40625 141.52734375Q156.9375 141.8515625 156.3671875 142.01953125Q155.796875 142.1875 155.15625 142.1875Z M162.1484375 136.765625V142.0H160.7421875V130.359375H162.1484375V135.3828125H161.90625Q162.3046875 134.171875 163.04296875 133.6640625Q163.78125 133.15625 164.7734375 133.15625Q165.65625 133.15625 166.32421875 133.51953125Q166.9921875 133.8828125 167.36328125 134.61328125Q167.734375 135.34375 167.734375 136.453125V142.0H166.3203125V136.5703125Q166.3203125 135.5625 165.79296875 134.9921875Q165.265625 134.421875 164.3515625 134.421875Q163.7265625 134.421875 163.2265625 134.6953125Q162.7265625 134.96875 162.4375 135.4921875Q162.1484375 136.015625 162.1484375 136.765625Z M177.9765625 142.1875Q176.890625 142.1875 176.0546875 141.6328125Q175.21875 141.078125 174.75 140.0625Q174.28125 139.046875 174.28125 137.65625Q174.28125 136.2734375 174.75390625 135.26171875Q175.2265625 134.25 176.0625 133.703125Q176.8984375 133.15625 177.984375 133.15625Q178.8359375 133.15625 179.3359375 133.4375Q179.8359375 133.71875 180.10546875 134.07421875Q180.375 134.4296875 180.515625 134.6640625H180.625V130.359375H182.03125V142.0H180.671875V140.6484375H180.515625Q180.375 140.890625 180.09765625 141.25390625Q179.8203125 141.6171875 179.31640625 141.90234375Q178.8125 142.1875 177.9765625 142.1875ZM178.1875 140.9296875Q178.984375 140.9296875 179.53125 140.51171875Q180.078125 140.09375 180.359375 139.3515625Q180.640625 138.609375 180.640625 137.640625Q180.640625 136.671875 180.36328125 135.94921875Q180.0859375 135.2265625 179.5390625 134.8203125Q178.9921875 134.4140625 178.1875 134.4140625Q177.359375 134.4140625 176.80859375 134.84375Q176.2578125 135.2734375 175.984375 136.00390625Q175.7109375 136.734375 175.7109375 137.640625Q175.7109375 138.5546875 175.98828125 139.30078125Q176.265625 140.046875 176.8203125 140.48828125Q177.375 140.9296875 178.1875 140.9296875Z M184.5 142.0V133.265625H185.90625V142.0ZM185.2109375 131.8359375Q184.8125 131.8359375 184.5234375 131.5625Q184.234375 131.2890625 184.234375 130.90625Q184.234375 130.515625 184.5234375 130.24609375Q184.8125 129.9765625 185.2109375 129.9765625Q185.6171875 129.9765625 185.90625 130.24609375Q186.1953125 130.515625 186.1953125 130.90625Q186.1953125 131.2890625 185.90625 131.5625Q185.6171875 131.8359375 185.2109375 131.8359375Z M188.375 142.0V133.265625H189.734375V134.609375H189.828125Q190.0703125 133.9453125 190.69140625 133.54296875Q191.3125 133.140625 192.09375 133.140625Q192.25 133.140625 192.46484375 133.1484375Q192.6796875 133.15625 192.8046875 133.1640625V134.578125Q192.7421875 134.5625 192.4921875 134.53125Q192.2421875 134.5 191.9609375 134.5Q191.3359375 134.5 190.83984375 134.76171875Q190.34375 135.0234375 190.0625 135.48046875Q189.78125 135.9375 189.78125 136.53125V142.0Z M198.0703125 142.1875Q196.8046875 142.1875 195.88671875 141.625Q194.96875 141.0625 194.47265625 140.0546875Q193.9765625 139.046875 193.9765625 137.703125Q193.9765625 136.359375 194.4609375 135.3359375Q194.9453125 134.3125 195.83203125 133.734375Q196.71875 133.15625 197.90625 133.15625Q198.6015625 133.15625 199.27734375 133.38671875Q199.953125 133.6171875 200.50390625 134.12890625Q201.0546875 134.640625 201.3828125 135.4765625Q201.7109375 136.3125 201.7109375 137.5234375V138.109375H194.9296875V136.921875H200.953125L200.296875 137.359375Q200.296875 136.5 200.02734375 135.83203125Q199.7578125 135.1640625 199.2265625 134.78515625Q198.6953125 134.40625 197.90625 134.40625Q197.1171875 134.40625 196.5546875 134.79296875Q195.9921875 135.1796875 195.6953125 135.80078125Q195.3984375 136.421875 195.3984375 137.1328125V137.921875Q195.3984375 138.890625 195.734375 139.56640625Q196.0703125 140.2421875 196.67578125 140.58984375Q197.28125 140.9375 198.078125 140.9375Q198.59375 140.9375 199.015625 140.7890625Q199.4375 140.640625 199.7421875 140.33984375Q200.046875 140.0390625 200.2109375 139.59375L201.5703125 139.96875Q201.3671875 140.625 200.8828125 141.125Q200.3984375 141.625 199.68359375 141.90625Q198.96875 142.1875 198.0703125 142.1875Z M205.046875 138.859375V137.1171875H205.3046875L209.0390625 133.265625H210.78125L206.7421875 137.4140625H206.5859375ZM203.7265625 142.0V130.359375H205.1328125V142.0ZM209.25 142.0 205.90625 137.7265625 206.90625 136.734375 211.0546875 142.0Z M215.9453125 133.265625V134.46875H211.4296875V133.265625ZM212.7421875 131.1875H214.1484375V139.734375Q214.1484375 140.3203125 214.38671875 140.58984375Q214.625 140.859375 215.1796875 140.859375Q215.3125 140.859375 215.51953125 140.828125Q215.7265625 140.796875 215.8984375 140.765625L216.1875 141.953125Q215.96875 142.03125 215.69140625 142.0703125Q215.4140625 142.109375 215.140625 142.109375Q214.0078125 142.109375 213.375 141.51171875Q212.7421875 140.9140625 212.7421875 139.84375Z M222.2421875 142.0V133.265625H223.6484375V142.0ZM222.953125 131.8359375Q222.5546875 131.8359375 222.265625 131.5625Q221.9765625 131.2890625 221.9765625 130.90625Q221.9765625 130.515625 222.265625 130.24609375Q222.5546875 129.9765625 222.953125 129.9765625Q223.359375 129.9765625 223.6484375 130.24609375Q223.9375 130.515625 223.9375 130.90625Q223.9375 131.2890625 223.6484375 131.5625Q223.359375 131.8359375 222.953125 131.8359375Z M226.1171875 142.0V133.265625H227.484375L227.4921875 135.21875H227.3828125Q227.5625 134.5078125 227.94921875 134.04296875Q228.3359375 133.578125 228.85546875 133.34375Q229.375 133.109375 229.9375 133.109375Q230.890625 133.109375 231.48046875 133.6953125Q232.0703125 134.28125 232.2421875 135.234375H232.0546875Q232.2109375 134.578125 232.625 134.1015625Q233.0390625 133.625 233.62890625 133.3671875Q234.21875 133.109375 234.9140625 133.109375Q235.671875 133.109375 236.296875 133.4375Q236.921875 133.765625 237.29296875 134.4296875Q237.6640625 135.09375 237.6640625 136.109375V142.0H236.2578125V136.1484375Q236.2578125 135.203125 235.7265625 134.796875Q235.1953125 134.390625 234.4921875 134.390625Q233.90625 134.390625 233.48046875 134.63671875Q233.0546875 134.8828125 232.82421875 135.3125Q232.59375 135.7421875 232.59375 136.296875V142.0H231.1875V136.0078125Q231.1875 135.28125 230.703125 134.8359375Q230.21875 134.390625 229.4765625 134.390625Q228.96875 134.390625 228.51953125 134.62890625Q228.0703125 134.8671875 227.796875 135.3359375Q227.5234375 135.8046875 227.5234375 136.5V142.0Z" fill="#e8e8f0"/><path d="M21.40625 166.0V154.359375H25.53125Q26.75 154.359375 27.54296875 154.77734375Q28.3359375 155.1953125 28.72265625 155.89453125Q29.109375 156.59375 29.109375 157.4453125Q29.109375 158.1953125 28.84375 158.68359375Q28.578125 159.171875 28.14453125 159.4609375Q27.7109375 159.75 27.203125 159.890625V160.0Q27.75 160.03125 28.29296875 160.375Q28.8359375 160.71875 29.19921875 161.3515625Q29.5625 161.984375 29.5625 162.8984375Q29.5625 163.7734375 29.16015625 164.4765625Q28.7578125 165.1796875 27.8984375 165.58984375Q27.0390625 166.0 25.6640625 166.0ZM22.890625 164.6875H25.625Q26.984375 164.6875 27.55859375 164.1640625Q28.1328125 163.640625 28.1328125 162.8828125Q28.1328125 162.296875 27.8359375 161.8046875Q27.5390625 161.3125 26.99609375 161.015625Q26.453125 160.71875 25.703125 160.71875H22.890625ZM22.890625 159.46875H25.453125Q26.078125 159.46875 26.5859375 159.22265625Q27.09375 158.9765625 27.390625 158.52734375Q27.6875 158.078125 27.6875 157.4765625Q27.6875 156.71875 27.16015625 156.1953125Q26.6328125 155.671875 25.5 155.671875H22.890625Z M31.703125 166.0V157.265625H33.0625V158.609375H33.15625Q33.3984375 157.9453125 34.01953125 157.54296875Q34.640625 157.140625 35.421875 157.140625Q35.578125 157.140625 35.79296875 157.1484375Q36.0078125 157.15625 36.1328125 157.1640625V158.578125Q36.0703125 158.5625 35.8203125 158.53125Q35.5703125 158.5 35.2890625 158.5Q34.6640625 158.5 34.16796875 158.76171875Q33.671875 159.0234375 33.390625 159.48046875Q33.109375 159.9375 33.109375 160.53125V166.0Z M41.28125 166.1875Q40.09375 166.1875 39.19921875 165.625Q38.3046875 165.0625 37.8046875 164.046875Q37.3046875 163.03125 37.3046875 161.6875Q37.3046875 160.3203125 37.8046875 159.30078125Q38.3046875 158.28125 39.19921875 157.71875Q40.09375 157.15625 41.28125 157.15625Q42.4765625 157.15625 43.375 157.71875Q44.2734375 158.28125 44.7734375 159.30078125Q45.2734375 160.3203125 45.2734375 161.6875Q45.2734375 163.03125 44.7734375 164.046875Q44.2734375 165.0625 43.375 165.625Q42.4765625 166.1875 41.28125 166.1875ZM41.28125 164.9296875Q42.1640625 164.9296875 42.734375 164.4765625Q43.3046875 164.0234375 43.578125 163.28515625Q43.8515625 162.546875 43.8515625 161.6875Q43.8515625 160.8203125 43.578125 160.07421875Q43.3046875 159.328125 42.734375 158.87109375Q42.1640625 158.4140625 41.28125 158.4140625Q40.40625 158.4140625 39.84375 158.87109375Q39.28125 159.328125 39.0078125 160.0703125Q38.734375 160.8125 38.734375 161.6875Q38.734375 162.546875 39.0078125 163.28515625Q39.28125 164.0234375 39.84375 164.4765625Q40.40625 164.9296875 41.28125 164.9296875Z M49.28125 166.0 46.6328125 157.265625H48.125L49.1875 161.078125Q49.40625 161.859375 49.65625 162.84765625Q49.90625 163.8359375 50.1484375 165.0859375H49.90625Q50.140625 163.890625 50.3828125 162.8984375Q50.625 161.90625 50.8515625 161.078125L51.8984375 157.265625H53.3984375L54.4296875 161.078125Q54.6484375 161.8828125 54.88671875 162.87109375Q55.125 163.859375 55.359375 165.0859375H55.109375Q55.359375 163.875 55.60546875 162.88671875Q55.8515625 161.8984375 56.078125 161.078125L57.140625 157.265625H58.6328125L55.984375 166.0H54.5859375L53.453125 162.046875Q53.28125 161.4453125 53.1171875 160.8203125Q52.953125 160.1953125 52.796875 159.5390625Q52.640625 158.8828125 52.4765625 158.203125H52.7890625Q52.6328125 158.875 52.47265625 159.53515625Q52.3125 160.1953125 52.1484375 160.828125Q51.984375 161.4609375 51.8125 162.046875L50.6796875 166.0Z M63.3828125 166.1875Q62.484375 166.1875 61.78515625 165.92578125Q61.0859375 165.6640625 60.6328125 165.1484375Q60.1796875 164.6328125 60.0234375 163.8828125L61.359375 163.5625Q61.546875 164.28125 62.06640625 164.6171875Q62.5859375 164.953125 63.3671875 164.953125Q64.28125 164.953125 64.82421875 164.5625Q65.3671875 164.171875 65.3671875 163.6328125Q65.3671875 163.1796875 65.05078125 162.87890625Q64.734375 162.578125 64.0859375 162.4296875L62.6328125 162.0859375Q61.4453125 161.8046875 60.8671875 161.21484375Q60.2890625 160.625 60.2890625 159.703125Q60.2890625 158.953125 60.7109375 158.37890625Q61.1328125 157.8046875 61.86328125 157.48046875Q62.59375 157.15625 63.5234375 157.15625Q64.421875 157.15625 65.05078125 157.42578125Q65.6796875 157.6953125 66.07421875 158.16796875Q66.46875 158.640625 66.6640625 159.2578125L65.390625 159.5859375Q65.2109375 159.1171875 64.79296875 158.734375Q64.375 158.3515625 63.53125 158.3515625Q62.75 158.3515625 62.23046875 158.7109375Q61.7109375 159.0703125 61.7109375 159.6171875Q61.7109375 160.1015625 62.0625 160.39453125Q62.4140625 160.6875 63.1796875 160.8671875L64.5 161.1796875Q65.6875 161.4609375 66.2578125 162.05078125Q66.828125 162.640625 66.828125 163.5390625Q66.828125 164.3046875 66.39453125 164.90234375Q65.9609375 165.5 65.18359375 165.84375Q64.40625 166.1875 63.3828125 166.1875Z M72.53125 166.1875Q71.265625 166.1875 70.34765625 165.625Q69.4296875 165.0625 68.93359375 164.0546875Q68.4375 163.046875 68.4375 161.703125Q68.4375 160.359375 68.921875 159.3359375Q69.40625 158.3125 70.29296875 157.734375Q71.1796875 157.15625 72.3671875 157.15625Q73.0625 157.15625 73.73828125 157.38671875Q74.4140625 157.6171875 74.96484375 158.12890625Q75.515625 158.640625 75.84375 159.4765625Q76.171875 160.3125 76.171875 161.5234375V162.109375H69.390625V160.921875H75.4140625L74.7578125 161.359375Q74.7578125 160.5 74.48828125 159.83203125Q74.21875 159.1640625 73.6875 158.78515625Q73.15625 158.40625 72.3671875 158.40625Q71.578125 158.40625 71.015625 158.79296875Q70.453125 159.1796875 70.15625 159.80078125Q69.859375 160.421875 69.859375 161.1328125V161.921875Q69.859375 162.890625 70.1953125 163.56640625Q70.53125 164.2421875 71.13671875 164.58984375Q71.7421875 164.9375 72.5390625 164.9375Q73.0546875 164.9375 73.4765625 164.7890625Q73.8984375 164.640625 74.203125 164.33984375Q74.5078125 164.0390625 74.671875 163.59375L76.03125 163.96875Q75.828125 164.625 75.34375 165.125Q74.859375 165.625 74.14453125 165.90625Q73.4296875 166.1875 72.53125 166.1875Z M78.1875 166.0V157.265625H79.546875V158.609375H79.640625Q79.8828125 157.9453125 80.50390625 157.54296875Q81.125 157.140625 81.90625 157.140625Q82.0625 157.140625 82.27734375 157.1484375Q82.4921875 157.15625 82.6171875 157.1640625V158.578125Q82.5546875 158.5625 82.3046875 158.53125Q82.0546875 158.5 81.7734375 158.5Q81.1484375 158.5 80.65234375 158.76171875Q80.15625 159.0234375 79.875 159.48046875Q79.59375 159.9375 79.59375 160.53125V166.0Z M85.28125 166.1015625Q84.84375 166.1015625 84.53515625 165.79296875Q84.2265625 165.484375 84.2265625 165.046875Q84.2265625 164.609375 84.53515625 164.30078125Q84.84375 163.9921875 85.28125 163.9921875Q85.71875 163.9921875 86.02734375 164.30078125Q86.3359375 164.609375 86.3359375 165.046875Q86.3359375 165.484375 86.02734375 165.79296875Q85.71875 166.1015625 85.28125 166.1015625Z" fill="#e8e8f0"/><defs><linearGradient id="pg" x1="0" y1="0" x2="1" y2="1"><stop offset="0" stop-color="#ff9a3d"/><stop offset="1" stop-color="#ff6d00"/></linearGradient></defs><rect x="20" y="192" width="280" height="42" rx="10" fill="url(#pg)"/><path d="M116.186 211.746 115.768 214.178H118.08600000000001V216.344H115.388L114.81800000000001 219.65H112.31L112.88000000000001 216.344H110.77100000000002L110.20100000000001 219.65H107.69300000000001L108.263 216.344H106.36300000000001V214.178H108.64300000000001L109.061 211.746H106.74300000000001V209.58H109.441L109.992 206.35H112.50000000000001L111.94900000000001 209.58H114.058L114.60900000000001 206.35H117.117L116.566 209.58H118.46600000000001V211.746ZM113.67800000000001 211.746H111.569L111.15100000000001 214.178H113.26Z M121.22100000000002 212.297H119.51100000000001V210.18800000000002H121.22100000000002V208.30700000000002L123.14000000000001 206.388H126.63600000000001V208.459H124.22300000000001L123.69100000000002 208.991V210.18800000000002H126.63600000000001V212.297H123.72900000000001V219.65H121.22100000000002Z M127.96600000000001 210.18800000000002H130.28400000000002V211.76500000000001L131.804 210.18800000000002H134.502V212.316H132.317L130.47400000000002 214.216V219.65H127.96600000000001Z M135.547 217.71200000000002V212.16400000000002L137.50400000000002 210.18800000000002H142.84300000000002L144.81900000000002 212.16400000000002V215.755H138.055V216.971L138.663 217.598H141.76000000000002L142.33 217.00900000000001V216.51500000000001H144.8V217.75L142.919 219.65H137.466ZM142.311 214.007V212.905L141.66500000000002 212.24H138.70100000000002L138.055 212.905V214.007Z M146.624 217.71200000000002V212.16400000000002L148.58100000000002 210.18800000000002H153.92000000000002L155.89600000000002 212.16400000000002V215.755H149.132V216.971L149.74 217.598H152.83700000000002L153.407 217.00900000000001V216.51500000000001H155.877V217.75L153.996 219.65H148.543ZM153.388 214.007V212.905L152.74200000000002 212.24H149.77800000000002L149.132 212.905V214.007Z M157.416 217.788V216.62900000000002H159.886V217.161L160.304 217.598H163.382L163.8 217.161V216.344L163.363 215.888H159.278L157.49200000000002 214.083V212.012L159.297 210.18800000000002H164.237L166.08 212.05V213.209H163.61V212.677L163.192 212.24H160.38L159.96200000000002 212.677V213.418L160.399 213.874H164.484L166.27 215.679V217.826L164.465 219.65H159.25900000000001Z M168.075 210.18800000000002H170.393V211.57500000000002L171.78 210.18800000000002H175.466L177.423 212.16400000000002V217.674L175.466 219.65H171.799L170.583 218.643V223.678H168.075ZM174.25 217.522 174.915 216.857V212.981L174.25 212.316H172.103L170.583 213.85500000000002V216.173L172.084 217.522Z M179.22799999999998 217.90200000000002V215.73600000000002L180.976 213.988H185.783V212.791L185.194 212.202H182.344L181.774 212.791V213.323H179.304V212.24L181.337 210.18800000000002H186.22L188.253 212.24V219.65H185.992V218.30100000000002L184.58599999999998 219.65H180.976ZM184.415 217.71200000000002 185.783 216.401V215.774H182.21099999999998L181.69799999999998 216.287V217.237L182.173 217.71200000000002Z M189.678 210.18800000000002H192.224L193.30700000000002 216.154H193.383L195.093 210.18800000000002H197.373L198.95 216.154H199.026L200.223 210.18800000000002H202.769L200.318 219.65H197.981L196.233 213.26600000000002H196.157L194.29500000000002 219.65H191.958Z M204.289 210.18800000000002H206.607V211.76500000000001L208.184 210.18800000000002H211.243L213.352 212.297V219.65H210.844V212.981L210.198 212.316H208.602L206.797 214.14000000000001V219.65H204.289Z" fill="#1a0c00"/></svg>
